#!OML:ASF E:\acrobat2\Project_11_07_03\Capture day 1\Session 1\Acrobat.ASF
:FULLY-SPECIFIED
:DEGREES
363
root 13.578 27.4965 10.3496 -34.8812 -71.4769 37.6615
lowerback 6.86644 -1.99661 -0.80094
upperback 5.7431 -3.00503 5.28379
thorax 2.44567 -1.74959 6.08626
lowerneck -0.790465 -4.25749 -5.32677
upperneck 11.37 -6.95324 11.203
head 4.07363 -3.2512 4.02696
rclavicle 5.88403e-014 -9.54166e-015
rhumerus -12.2741 -36.9536 -0.787755
rradius 61.3762
rwrist -62.1464
rhand -16.0844 -27.4557
rfingers 7.12502
rthumb 10.1188 -57.1924
lclavicle 5.88403e-014 -9.54166e-015
lhumerus -60.1327 -57.3508 42.4615
lradius 15.9467
lwrist 8.95373
lhand 9.85119 -1.47611
lfingers 7.12502
lthumb 34.9852 25.0834
rfemur -35.2323 2.54729 5.18089
rtibia 78.7392
rfoot 18.0243 -7.72834
rtoes 0.395233
lfemur -21.2898 20.6908 -35.5848
ltibia 65.5564
lfoot 23.9296 3.90305
ltoes 10.8494
364
root 13.6713 27.8232 10.4032 -41.1057 -74.1141 44.5222
lowerback 7.96902 -1.69104 -0.386751
upperback 6.4778 -2.65308 5.57026
thorax 2.56552 -1.60815 6.17513
lowerneck -0.523484 -4.75638 -5.57328
upperneck 11.3945 -7.63543 11.1781
head 4.10393 -3.60411 4.03121
rclavicle 3.89618e-014 9.54166e-015
rhumerus -11.9559 -35.2614 -4.69279
rradius 58.7655
rwrist -64.3101
rhand -16.3482 -34.4613
rfingers 7.12502
rthumb 9.86426 -64.2103
lclavicle 3.89618e-014 9.54166e-015
lhumerus -66.1398 -51.6597 48.9374
lradius 14.5175
lwrist 5.48626
lhand 10.1694 -2.42372
lfingers 7.12502
lthumb 35.287 24.0648
rfemur -38.5148 2.95808 5.62535
rtibia 83.2879
rfoot 16.6366 -6.85061
rtoes -2.7251
lfemur -25.3422 20.5209 -36.3596
ltibia 69.8423
lfoot 22.9927 4.0604
ltoes 11.1498
365
root 13.7647 28.1377 10.4571 -48.2295 -76.564 52.4812
lowerback 8.9202 -1.42137 0.298028
upperback 7.18351 -2.33989 5.87579
thorax 2.74057 -1.47837 6.12097
lowerneck -0.428444 -5.33381 -5.76003
upperneck 11.4131 -8.41751 11.1473
head 4.16991 -3.99603 4.01262
rclavicle 3.18055e-015 6.36111e-014
rhumerus -11.4681 -33.0714 -8.70813
rradius 56.0608
rwrist -65.6057
rhand -16.6481 -38.8333
rfingers 7.12502
rthumb 9.57485 -68.5957
lclavicle 3.18055e-015 6.36111e-014
lhumerus -70.315 -45.865 53.93
lradius 13.3268
lwrist 3.0561
lhand 9.29691 -3.28873
lfingers 7.12502
lthumb 34.4592 23.3919
rfemur -41.9657 3.24441 6.46524
rtibia 87.6724
rfoot 15.1289 -6.38531
rtoes -5.42682
lfemur -29.832 19.8235 -36.6459
ltibia 74.1975
lfoot 22.1877 3.73472
ltoes 10.8497
366
root 13.8582 28.4352 10.51 -57.4076 -78.6157 62.5894
lowerback 9.83954 -1.17324 1.07237
upperback 7.89603 -2.05007 6.1011
thorax 2.94736 -1.35434 5.92674
lowerneck -0.329808 -5.92516 -5.93104
upperneck 11.2855 -9.2121 11.2201
head 4.19762 -4.3903 4.02191
rclavicle 2.38542e-014 3.18055e-014
rhumerus -11.019 -30.479 -12.8189
rradius 53.4446
rwrist -65.9693
rhand -16.9549 -40.4245
rfingers 7.12502
rthumb 9.27885 -70.2003
lclavicle 2.38542e-014 3.18055e-014
lhumerus -72.3774 -39.8162 56.8523
lradius 12.2532
lwrist 0.617712
lhand 7.87779 -4.26496
lfingers 7.12502
lthumb 33.1108 22.7118
rfemur -45.4712 3.33978 7.46483
rtibia 91.9302
rfoot 13.6333 -6.29389
rtoes -8.42528
lfemur -34.4757 18.7229 -36.58
ltibia 78.477
lfoot 21.5497 2.90502
ltoes 9.93931
367
root 13.9519 28.7128 10.561 -69.1966 -80.0605 75.3071
lowerback 10.8264 -0.937693 1.83861
upperback 8.62522 -1.77205 6.21304
thorax 3.14578 -1.23168 5.61595
lowerneck -0.190356 -6.49719 -6.14566
upperneck 10.9819 -9.98793 11.5471
head 4.17996 -4.77074 4.11924
rclavicle 0 9.54166e-015
rhumerus -10.7345 -27.719 -17.0021
rradius 51.0584
rwrist -65.3098
rhand -17.0621 -40.2149
rfingers 7.12502
rthumb 9.17542 -69.9952
lclavicle 0 9.54166e-015
lhumerus -73.0631 -33.7681 58.3659
lradius 11.3006
lwrist -1.55111
lhand 6.11534 -5.29283
lfingers 7.12502
lthumb 31.4332 22.0252
rfemur -48.9361 3.20155 8.51847
rtibia 96.0946
rfoot 12.2239 -6.59349
rtoes -12.0873
lfemur -39.0707 17.3152 -36.2127
ltibia 82.5933
lfoot 21.0629 1.64231
ltoes 8.44688
368
root 14.0446 28.9804 10.612 -82.7307 -80.768 89.7151
lowerback 11.9331 -0.712794 2.58452
upperback 9.36094 -1.49866 6.21975
thorax 3.29977 -1.10672 5.20487
lowerneck 0.0202882 -7.03144 -6.40058
upperneck 10.4592 -10.7172 12.1583
head 4.10115 -5.1263 4.31708
rclavicle 9.54166e-015 6.36111e-015
rhumerus -10.6609 -25.2551 -21.193
rradius 49.0493
rwrist -63.6857
rhand -16.7699 -39.5014
rfingers 7.12502
rthumb 9.4574 -69.2692
lclavicle 9.54166e-015 6.36111e-015
lhumerus -72.4111 -27.6001 58.1275
lradius 10.3351
lwrist -4.41692
lhand 4.67384 -6.52673
lfingers 7.12502
lthumb 30.0588 21.0499
rfemur -52.2264 2.79137 9.59102
rtibia 100.102
rfoot 10.9273 -7.2849
rtoes -16.3207
lfemur -43.4417 15.7032 -35.5924
ltibia 86.4078
lfoot 20.6972 -0.024691
ltoes 6.21473
369
root 14.1383 29.2244 10.6602 -95.6981 -80.7955 103.505
lowerback 13.1485 -0.501494 3.31612
upperback 10.0797 -1.23008 6.16249
thorax 3.39502 -0.980226 4.73315
lowerneck 0.264947 -7.53297 -6.65193
upperneck 9.73396 -11.3964 12.9907
head 3.97002 -5.45736 4.58843
rclavicle 1.74931e-014 3.49861e-014
rhumerus -10.7744 -23.2862 -25.3642
rradius 47.3574
rwrist -61.2921
rhand -16.2272 -38.5323
rfingers 7.12502
rthumb 9.98096 -68.2757
lclavicle 1.74931e-014 3.49861e-014
lhumerus -71.9339 -22.1393 58.9123
lradius 9.46168
lwrist -5.72407
lhand 3.54611 -7.5571
lfingers 7.12502
lthumb 28.9823 20.2097
rfemur -55.4293 2.09757 10.726
rtibia 104.034
rfoot 9.749 -8.37313
rtoes -20.5521
lfemur -47.6745 13.92 -34.7188
ltibia 89.9739
lfoot 20.4173 -1.93631
ltoes 3.48808
370
root 14.2318 29.4511 10.7081 -106.279 -80.2829 114.864
lowerback 14.4558 -0.3029 3.99806
upperback 10.7642 -0.965601 6.06716
thorax 3.4255 -0.854552 4.24703
lowerneck 0.522374 -8.00545 -6.85595
upperneck 8.77734 -12.0046 13.911
head 3.77127 -5.75981 4.88675
rclavicle -1.59028e-015 -3.18055e-014
rhumerus -11.0023 -21.8499 -29.4461
rradius 45.932
rwrist -58.5158
rhand -15.6219 -37.5755
rfingers 7.12502
rthumb 10.5649 -67.29
lclavicle -1.59028e-015 -3.18055e-014
lhumerus -71.106 -17.1931 59.7664
lradius 8.70869
lwrist -6.67506
lhand 3.16819 -8.41138
lfingers 7.12502
lthumb 28.6213 19.4169
rfemur -58.5134 1.11707 11.862
rtibia 107.854
rfoot 8.64792 -9.7559
rtoes -24.1357
lfemur -51.7517 12.0182 -33.6896
ltibia 93.2418
lfoot 20.178 -3.99476
ltoes 0.223942
371
root 14.3246 29.6581 10.7573 -113.894 -79.3855 123.219
lowerback 15.8228 -0.120467 4.5916
upperback 11.4115 -0.714684 5.93622
thorax 3.40626 -0.736835 3.7704
lowerneck 0.769974 -8.45034 -6.98118
upperneck 7.60227 -12.5292 14.8217
head 3.50343 -6.03159 5.17778
rclavicle 9.54166e-015 4.13472e-014
rhumerus -11.2938 -20.8332 -33.3718
rradius 44.7682
rwrist -55.7977
rhand -15.0694 -36.8543
rfingers 7.12502
rthumb 11.0978 -66.5408
lclavicle 9.54166e-015 4.13472e-014
lhumerus -69.9698 -12.7653 60.7501
lradius 8.0761
lwrist -7.5061
lhand 3.4905 -8.93861
lfingers 7.12502
lthumb 28.9292 18.8373
rfemur -61.5192 -0.132049 12.9237
rtibia 111.595
rfoot 7.53505 -11.2919
rtoes -26.5804
lfemur -55.7186 10.0442 -32.5919
ltibia 96.2437
lfoot 19.925 -6.02833
ltoes -3.17228
